<?xml version="1.0" encoding="utf-8"?>
<!-- Generator: Adobe Illustrator 25.0.0, SVG Export Plug-In . SVG Version: 6.00 Build 0)  -->
<svg version="1.1" id="Layer_1" xmlns="http://www.w3.org/2000/svg" xmlns:xlink="http://www.w3.org/1999/xlink" x="0px" y="0px"
	 viewBox="0 0 1920 791" style="enable-background:new 0 0 1920 791;" xml:space="preserve">
<style type="text/css">
	.st0{fill:#E74C3C;}
	.st1{fill:none;stroke:#E74C3C;stroke-width:26;stroke-miterlimit:10;}
	.st2{fill:none;stroke:#F3EFFF;stroke-width:6;stroke-miterlimit:10;}
	.st3{fill:none;stroke:#E74C3C;stroke-width:5;stroke-miterlimit:10;}
</style>
<g>
	<path class="st0" d="M-1101.3,699.5l188-204l468,371h-445L-1101.3,699.5z"/>
	<path class="st0" d="M-1004.3,461.5c76.8,0,139,62.2,139,139s-62.2,139-139,139s-139-62.2-139-139S-1081.1,461.5-1004.3,461.5z"/>
</g>
<path class="st0" d="M-489.8-314.4l267.9,344.3c20.4,26.2,15.6,63.9-10.5,84.2l-328.3,255.3L-865.3-22.2L-489.8-314.4z"/>
<g>
	<circle class="st0" cx="-137.1" cy="-214.6" r="4"/>
</g>
<g>
	<circle class="st0" cx="-117" cy="-214.6" r="4"/>
</g>
<g>
	<circle class="st0" cx="-96.8" cy="-214.6" r="4"/>
</g>
<g>
	<circle class="st0" cx="-137.1" cy="-186.4" r="4"/>
</g>
<g>
	<circle class="st0" cx="-117" cy="-186.4" r="4"/>
</g>
<g>
	<circle class="st0" cx="-96.8" cy="-186.4" r="4"/>
</g>
<g>
	<circle class="st0" cx="-137.1" cy="-158.2" r="4"/>
</g>
<g>
	<circle class="st0" cx="-117" cy="-158.2" r="4"/>
</g>
<g>
	<circle class="st0" cx="-96.8" cy="-158.2" r="4"/>
</g>
<g>
	<circle class="st0" cx="-137.1" cy="-130.1" r="4"/>
</g>
<g>
	<circle class="st0" cx="-117" cy="-130.1" r="4"/>
</g>
<g>
	<circle class="st0" cx="-96.8" cy="-130.1" r="4"/>
</g>
<g>
	<circle class="st0" cx="-137.1" cy="-101.9" r="4"/>
</g>
<g>
	<circle class="st0" cx="-117" cy="-101.9" r="4"/>
</g>
<g>
	<circle class="st0" cx="-96.8" cy="-101.9" r="4"/>
</g>
<g>
	<circle class="st0" cx="-137.1" cy="-73.8" r="4"/>
</g>
<g>
	<circle class="st0" cx="-117" cy="-73.8" r="4"/>
</g>
<g>
	<circle class="st0" cx="-96.8" cy="-73.8" r="4"/>
</g>
<g>
	<circle class="st0" cx="-137.1" cy="-45.6" r="4"/>
</g>
<g>
	<circle class="st0" cx="-117" cy="-45.6" r="4"/>
</g>
<g>
	<circle class="st0" cx="-96.8" cy="-45.6" r="4"/>
</g>
<g>
	<circle class="st0" cx="-137.1" cy="-19.6" r="4"/>
</g>
<g>
	<circle class="st0" cx="-117" cy="-19.6" r="4"/>
</g>
<g>
	<circle class="st0" cx="-96.8" cy="-19.6" r="4"/>
</g>
<g>
	<circle class="st0" cx="-137.1" cy="6.5" r="4"/>
</g>
<g>
	<circle class="st0" cx="-117" cy="6.5" r="4"/>
</g>
<g>
	<circle class="st0" cx="-96.8" cy="6.5" r="4"/>
</g>
<g>
	<circle class="st0" cx="-137.1" cy="32.6" r="4"/>
</g>
<g>
	<circle class="st0" cx="-117" cy="32.6" r="4"/>
</g>
<g>
	<circle class="st0" cx="-96.8" cy="32.6" r="4"/>
</g>
<path class="st1" d="M2144.1,758.3c-34.1,0-61.7-27.6-61.7-61.7s27.6-61.7,61.7-61.7"/>
<circle class="st1" cx="2051.5" cy="478.4" r="61.7"/>
<image style="overflow:visible;" width="81" height="61" xlink:href="DB53DAA4.jpg"  transform="matrix(3.36 0 0 3.36 1947.1342 361.5002)">
</image>
<path class="st2" d="M914.5,417.8c0,0-18,1.1-23.9-13.5c-3.6-8.9-1.6-19.6,5-26.7c12.8-13.7,39.7-9.9,45.7,8.5
	c2.7,8.4,1.3,17.6-1.5,26c-2,5.9-3.9,11.1-6.9,17.5c-2.6,5.5-5,10.4-8,15L914.5,417.8z"/>
<path class="st2" d="M831.8,417.8c0,0-18,1.1-23.9-13.5c-3.6-8.9-1.6-19.6,5-26.7c12.8-13.7,39.7-9.9,45.7,8.5
	c2.7,8.4,1.3,17.6-1.5,26c-2,5.9-3.9,11.1-6.9,17.5c-2.6,5.5-5,10.4-8,15L831.8,417.8z"/>
<path class="st3" d="M1240.2,331.8"/>
</svg>
