<?xml version="1.0" encoding="utf-8"?>
<!-- Generator: Adobe Illustrator 25.0.0, SVG Export Plug-In . SVG Version: 6.00 Build 0)  -->
<svg version="1.1" id="Layer_1" xmlns="http://www.w3.org/2000/svg" xmlns:xlink="http://www.w3.org/1999/xlink" x="0px" y="0px"
	 viewBox="0 0 1920 791" style="enable-background:new 0 0 1920 791;" xml:space="preserve">
<style type="text/css">
	.st0{fill:#E74C3C;}
	.st1{fill:none;stroke:#E74C3C;stroke-width:26;stroke-miterlimit:10;}
</style>
<g>
	<path class="st0" d="M-1101.3,699.5l188-204l468,371h-445L-1101.3,699.5z"/>
	<path class="st0" d="M-1004.3,461.5c76.8,0,139,62.2,139,139s-62.2,139-139,139s-139-62.2-139-139S-1081.1,461.5-1004.3,461.5z"/>
</g>
<path class="st0" d="M-489.8-314.4l267.9,344.3c20.4,26.2,15.6,63.9-10.5,84.2l-328.3,255.3L-865.3-22.2L-489.8-314.4z"/>
<g>
	<circle class="st0" cx="47.3" cy="49.5" r="4"/>
</g>
<g>
	<circle class="st0" cx="67.4" cy="49.5" r="4"/>
</g>
<g>
	<circle class="st0" cx="87.5" cy="49.5" r="4"/>
</g>
<g>
	<circle class="st0" cx="47.3" cy="77.7" r="4"/>
</g>
<g>
	<circle class="st0" cx="67.4" cy="77.7" r="4"/>
</g>
<g>
	<circle class="st0" cx="87.5" cy="77.7" r="4"/>
</g>
<g>
	<circle class="st0" cx="47.3" cy="105.8" r="4"/>
</g>
<g>
	<circle class="st0" cx="67.4" cy="105.8" r="4"/>
</g>
<g>
	<circle class="st0" cx="87.5" cy="105.8" r="4"/>
</g>
<g>
	<circle class="st0" cx="47.3" cy="134" r="4"/>
</g>
<g>
	<circle class="st0" cx="67.4" cy="134" r="4"/>
</g>
<g>
	<circle class="st0" cx="87.5" cy="134" r="4"/>
</g>
<g>
	<circle class="st0" cx="47.3" cy="162.1" r="4"/>
</g>
<g>
	<circle class="st0" cx="67.4" cy="162.1" r="4"/>
</g>
<g>
	<circle class="st0" cx="87.5" cy="162.1" r="4"/>
</g>
<g>
	<circle class="st0" cx="47.3" cy="190.3" r="4"/>
</g>
<g>
	<circle class="st0" cx="67.4" cy="190.3" r="4"/>
</g>
<g>
	<circle class="st0" cx="87.5" cy="190.3" r="4"/>
</g>
<g>
	<circle class="st0" cx="47.3" cy="218.5" r="4"/>
</g>
<g>
	<circle class="st0" cx="67.4" cy="218.5" r="4"/>
</g>
<g>
	<circle class="st0" cx="87.5" cy="218.5" r="4"/>
</g>
<g>
	<circle class="st0" cx="47.3" cy="244.5" r="4"/>
</g>
<g>
	<circle class="st0" cx="67.4" cy="244.5" r="4"/>
</g>
<g>
	<circle class="st0" cx="87.5" cy="244.5" r="4"/>
</g>
<g>
	<circle class="st0" cx="47.3" cy="270.6" r="4"/>
</g>
<g>
	<circle class="st0" cx="67.4" cy="270.6" r="4"/>
</g>
<g>
	<circle class="st0" cx="87.5" cy="270.6" r="4"/>
</g>
<g>
	<circle class="st0" cx="47.3" cy="296.7" r="4"/>
</g>
<g>
	<circle class="st0" cx="67.4" cy="296.7" r="4"/>
</g>
<g>
	<circle class="st0" cx="87.5" cy="296.7" r="4"/>
</g>
<path class="st1" d="M1920,696.6c-34.1,0-61.7-27.6-61.7-61.7c0-34.1,27.6-61.7,61.7-61.7"/>
<circle class="st1" cx="2051.5" cy="478.4" r="61.7"/>
</svg>
