<?xml version="1.0" encoding="utf-8"?>
<!-- Generator: Adobe Illustrator 25.0.0, SVG Export Plug-In . SVG Version: 6.00 Build 0)  -->
<svg version="1.1" id="Layer_1" xmlns="http://www.w3.org/2000/svg" xmlns:xlink="http://www.w3.org/1999/xlink" x="0px" y="0px"
	 viewBox="0 0 473 735.5" style="enable-background:new 0 0 473 735.5;" xml:space="preserve">
<style type="text/css">
	.st0{fill:#2B2B2B;}
	.st1{fill:#E43846;}
	.st2{fill:#FFFFFF;stroke:#2B2B2B;stroke-width:3;stroke-miterlimit:10;}
</style>
<g>
	<g>
		<g>
			<path class="st0" d="M966.3,560.4v-31.5H979c2.3,0,4.3,0.4,6.2,1.1c1.9,0.7,3.4,1.8,4.8,3.2c1.3,1.4,2.3,3.1,3.1,5
				c0.7,1.9,1.1,4.1,1.1,6.4c0,2.3-0.3,4.5-1.1,6.4c-0.7,1.9-1.7,3.6-3,5s-2.9,2.5-4.8,3.2s-3.9,1.1-6.2,1.1L966.3,560.4
				L966.3,560.4z M972.2,555.8l-0.4-0.9h7c1.5,0,2.8-0.2,3.9-0.7c1.2-0.5,2.1-1.2,2.9-2.1c0.8-0.9,1.4-2,1.8-3.3s0.6-2.7,0.6-4.3
				s-0.2-3-0.6-4.3s-1-2.4-1.9-3.3s-1.8-1.6-3-2.1s-2.4-0.7-3.9-0.7h-7.2l0.6-0.8L972.2,555.8L972.2,555.8z"/>
			<path class="st0" d="M1010.5,560.8c-2.5,0-4.7-0.5-6.6-1.6c-1.9-1-3.4-2.5-4.5-4.3s-1.6-3.9-1.6-6.2c0-1.9,0.3-3.6,0.9-5.1
				s1.4-2.9,2.5-4s2.3-2,3.8-2.6s3.1-0.9,4.9-0.9c1.6,0,3,0.3,4.4,0.9c1.3,0.6,2.5,1.4,3.5,2.5c1,1,1.8,2.3,2.3,3.7s0.8,3,0.7,4.7
				v1.9h-19.2l-1-3.8h15.6l-0.7,0.8v-1c-0.1-0.9-0.4-1.8-0.9-2.5s-1.2-1.3-2-1.7s-1.7-0.6-2.6-0.6c-1.5,0-2.7,0.3-3.7,0.9
				c-1,0.6-1.8,1.4-2.3,2.5s-0.8,2.4-0.8,4c0,1.5,0.3,2.9,1,4c0.6,1.1,1.6,2,2.7,2.6c1.2,0.6,2.6,0.9,4.2,0.9c1.1,0,2.1-0.2,3.1-0.5
				c0.9-0.4,1.9-1,3-1.9l2.7,3.8c-0.8,0.8-1.7,1.4-2.8,1.9c-1,0.5-2.1,0.9-3.3,1.2C1012.7,560.7,1011.6,560.8,1010.5,560.8z"/>
			<path class="st0" d="M1033.4,560.4l-10-23.7h6l6.8,17.7l-1.2,0.3l7.1-18h5.9l-10.5,23.7H1033.4L1033.4,560.4z"/>
			<path class="st1" d="M1052.1,560.4v-33.3h5.6v33.3H1052.1z"/>
			<path class="st1" d="M1073.1,560.8c-1.9,0-3.7-0.5-5.3-1.6c-1.6-1.1-2.9-2.6-3.8-4.4c-1-1.9-1.4-4-1.4-6.3s0.5-4.5,1.4-6.3
				c1-1.9,2.3-3.3,3.9-4.4c1.7-1,3.5-1.6,5.6-1.6c1.2,0,2.3,0.2,3.3,0.5s1.9,0.8,2.6,1.5s1.4,1.4,1.9,2.2s0.8,1.7,1,2.6l-1.2-0.3
				v-5.9h5.6v23.7h-5.6v-5.7l1.3-0.2c-0.2,0.8-0.6,1.6-1.2,2.4c-0.6,0.8-1.2,1.4-2.1,2c-0.8,0.6-1.7,1.1-2.8,1.4
				C1075.3,560.6,1074.3,560.8,1073.1,560.8z M1074.7,555.9c1.3,0,2.4-0.3,3.4-1c1-0.6,1.8-1.5,2.3-2.6c0.6-1.1,0.8-2.4,0.8-3.9
				c0-1.4-0.3-2.7-0.8-3.8c-0.6-1.1-1.3-2-2.3-2.6s-2.1-0.9-3.4-0.9s-2.4,0.3-3.4,0.9s-1.7,1.5-2.3,2.6c-0.5,1.1-0.8,2.4-0.8,3.8
				c0,1.5,0.3,2.8,0.8,3.9c0.5,1.1,1.3,2,2.3,2.6C1072.2,555.6,1073.4,555.9,1074.7,555.9z"/>
			<path class="st1" d="M1106.2,560.8c-1.1,0-2.1-0.2-3.1-0.5s-1.9-0.7-2.7-1.3c-0.8-0.5-1.5-1.2-2-1.8c-0.5-0.7-0.9-1.4-1.1-2
				l1.3-0.6l-0.1,5.7h-5.4v-33.2h5.5v15.1l-1-0.4c0.2-0.7,0.5-1.4,1-2.1c0.5-0.6,1.2-1.2,2-1.8c0.8-0.5,1.6-0.9,2.6-1.3
				c0.9-0.3,1.9-0.5,2.8-0.5c2.1,0,4,0.5,5.7,1.6c1.6,1.1,2.9,2.5,3.9,4.4c0.9,1.9,1.4,4,1.4,6.3c0,2.4-0.5,4.5-1.4,6.4
				s-2.2,3.3-3.9,4.4C1110,560.3,1108.2,560.8,1106.2,560.8z M1105,556c1.3,0,2.4-0.3,3.4-1c1-0.6,1.8-1.5,2.3-2.6s0.8-2.4,0.8-3.9
				c0-1.4-0.3-2.7-0.8-3.8c-0.6-1.1-1.3-2-2.3-2.6s-2.1-0.9-3.4-0.9s-2.4,0.3-3.4,0.9s-1.8,1.5-2.3,2.6c-0.6,1.1-0.9,2.4-0.9,3.8
				c0,1.5,0.3,2.8,0.9,3.9c0.6,1.1,1.3,2,2.3,2.6S1103.7,556,1105,556z"/>
			<path class="st0" d="M1146.1,560.8c-1.8,0-3.5-0.2-5-0.7s-2.9-1.2-4.1-2.1c-1.2-0.9-2.3-2-3.3-3.4l3.8-4.3c1.5,2,2.9,3.5,4.3,4.2
				c1.4,0.8,3,1.2,4.8,1.2c1,0,1.9-0.2,2.8-0.5c0.8-0.3,1.5-0.8,2-1.3c0.5-0.6,0.7-1.2,0.7-1.9c0-0.5-0.1-1-0.3-1.4
				c-0.2-0.4-0.5-0.8-0.9-1.2s-0.9-0.7-1.4-1c-0.6-0.3-1.2-0.5-1.9-0.8c-0.7-0.2-1.5-0.4-2.4-0.6c-1.7-0.3-3.1-0.8-4.3-1.3
				c-1.2-0.6-2.3-1.2-3.1-2.1c-0.8-0.8-1.5-1.8-1.8-2.8c-0.4-1-0.6-2.2-0.6-3.5s0.3-2.5,0.9-3.6s1.4-2.1,2.4-2.9
				c1-0.8,2.2-1.4,3.5-1.9s2.8-0.7,4.4-0.7c1.8,0,3.3,0.2,4.8,0.6s2.6,1,3.7,1.9c1.1,0.8,1.9,1.8,2.6,3l-3.9,3.8
				c-0.6-0.9-1.3-1.7-2-2.3c-0.8-0.6-1.6-1.1-2.4-1.4c-0.9-0.3-1.8-0.5-2.8-0.5c-1.1,0-2,0.1-2.8,0.5c-0.8,0.3-1.4,0.7-1.9,1.3
				s-0.7,1.2-0.7,2c0,0.6,0.1,1.1,0.4,1.6s0.7,0.9,1.2,1.2s1.1,0.7,1.9,1s1.7,0.5,2.7,0.7c1.7,0.3,3.1,0.8,4.4,1.3
				c1.3,0.6,2.4,1.2,3.4,2c0.9,0.8,1.6,1.6,2.1,2.6s0.7,2.1,0.7,3.3c0,2.1-0.5,3.9-1.5,5.3c-1,1.5-2.3,2.6-4.1,3.4
				C1150.5,560.4,1148.5,560.8,1146.1,560.8z"/>
			<path class="st0" d="M1174.2,560.8c-2.4,0-4.5-0.5-6.3-1.6c-1.9-1.1-3.3-2.5-4.4-4.4s-1.6-4-1.6-6.3s0.5-4.5,1.6-6.3
				s2.6-3.3,4.4-4.4c1.9-1.1,4-1.6,6.3-1.6s4.4,0.5,6.3,1.6s3.3,2.5,4.4,4.4s1.6,4,1.6,6.3s-0.5,4.5-1.6,6.3
				c-1.1,1.9-2.5,3.3-4.4,4.4C1178.6,560.3,1176.5,560.8,1174.2,560.8z M1174.2,555.9c1.3,0,2.4-0.3,3.4-1s1.8-1.5,2.4-2.7
				c0.6-1.1,0.9-2.4,0.8-3.8c0-1.4-0.2-2.7-0.8-3.8c-0.6-1.1-1.4-2-2.4-2.6s-2.1-1-3.4-1s-2.4,0.3-3.5,1c-1,0.7-1.8,1.5-2.4,2.7
				c-0.6,1.1-0.9,2.4-0.9,3.8s0.3,2.7,0.9,3.8s1.4,2,2.4,2.7C1171.7,555.6,1172.9,555.9,1174.2,555.9z"/>
			<path class="st0" d="M1191.4,560.4v-33.3h5.6v33.3H1191.4z"/>
			<path class="st0" d="M1211.8,560.8c-1.7,0-3.2-0.4-4.5-1.2s-2.2-1.9-2.9-3.3c-0.7-1.4-1-3.1-1-5.1v-14.6h5.5v13.5
				c0,1.3,0.2,2.3,0.6,3.2s1,1.6,1.7,2c0.8,0.5,1.7,0.7,2.7,0.7c0.8,0,1.5-0.1,2.1-0.4c0.7-0.2,1.2-0.6,1.7-1.1s0.8-1,1.1-1.7
				c0.3-0.6,0.4-1.3,0.4-2.1v-14.2h5.5v23.7h-5.4l-0.1-4.9l1-0.5c-0.4,1.1-1,2.2-1.8,3c-0.8,0.9-1.9,1.6-3,2.1
				C1214.3,560.6,1213.1,560.8,1211.8,560.8z"/>
			<path class="st0" d="M1229.2,541.8v-5.1h15.4v5.1H1229.2z M1233.9,560.4v-29.8h5.5v29.8H1233.9z"/>
			<path class="st0" d="M1252.2,531.6c-1.1,0-2-0.3-2.6-0.8s-0.9-1.3-0.9-2.4c0-1,0.3-1.7,0.9-2.3s1.5-0.9,2.6-0.9s2,0.3,2.6,0.8
				c0.6,0.6,0.9,1.4,0.9,2.4c0,0.9-0.3,1.7-1,2.3C1254.2,531.3,1253.3,531.6,1252.2,531.6z M1249.5,560.4v-23.7h5.5v23.7H1249.5z"/>
			<path class="st0" d="M1272.9,560.8c-2.4,0-4.5-0.5-6.3-1.6c-1.9-1.1-3.3-2.5-4.4-4.4s-1.6-4-1.6-6.3s0.5-4.5,1.6-6.3
				c1.1-1.9,2.6-3.3,4.4-4.4c1.9-1.1,4-1.6,6.3-1.6s4.4,0.5,6.3,1.6s3.3,2.5,4.4,4.4s1.6,4,1.6,6.3s-0.5,4.5-1.6,6.3
				c-1.1,1.9-2.5,3.3-4.4,4.4S1275.2,560.8,1272.9,560.8z M1272.9,555.9c1.3,0,2.4-0.3,3.4-1s1.8-1.5,2.4-2.7
				c0.6-1.1,0.9-2.4,0.8-3.8c0-1.4-0.2-2.7-0.8-3.8c-0.6-1.1-1.4-2-2.4-2.6s-2.2-1-3.4-1c-1.3,0-2.4,0.3-3.5,1
				c-1,0.7-1.8,1.5-2.4,2.7c-0.6,1.1-0.9,2.4-0.9,3.8s0.3,2.7,0.9,3.8s1.4,2,2.4,2.7C1270.4,555.6,1271.6,555.9,1272.9,555.9z"/>
			<path class="st0" d="M1290.1,560.4v-23.7h5.4l0.1,4.9l-1,0.5c0.3-1.1,0.9-2.1,1.8-3s1.9-1.6,3.1-2.1s2.4-0.8,3.7-0.8
				c1.8,0,3.3,0.4,4.5,1.1s2.1,1.8,2.8,3.2c0.6,1.4,0.9,3.2,0.9,5.4v14.5h-5.5v-14.1c0-1.2-0.2-2.2-0.5-3s-0.8-1.4-1.5-1.8
				c-0.7-0.4-1.5-0.5-2.5-0.5c-0.8,0-1.6,0.1-2.2,0.4c-0.7,0.3-1.3,0.6-1.8,1.1s-0.9,1-1.2,1.6c-0.3,0.6-0.4,1.3-0.4,2v14.3h-2.8
				c-0.5,0-1,0-1.5,0C1290.9,560.4,1290.5,560.4,1290.1,560.4z"/>
			<path class="st0" d="M1331.8,560.4v-31.5h5.8V555h14.5v5.4H1331.8z"/>
			<path class="st0" d="M1361.2,531.6c-1.1,0-2-0.3-2.6-0.8s-0.9-1.3-0.9-2.4c0-1,0.3-1.7,0.9-2.3s1.5-0.9,2.6-0.9s2,0.3,2.6,0.8
				c0.6,0.6,0.9,1.4,0.9,2.4c0,0.9-0.3,1.7-1,2.3C1363.2,531.3,1362.3,531.6,1361.2,531.6z M1358.5,560.4v-23.7h5.5v23.7H1358.5z"/>
			<path class="st0" d="M1370.9,560.4v-23.7h5.4l0.1,4.8l-0.9,0.4c0.3-0.8,0.7-1.5,1.2-2.2s1.2-1.3,1.9-1.8s1.5-0.9,2.4-1.2
				c0.8-0.3,1.7-0.4,2.6-0.4c1.3,0,2.4,0.2,3.4,0.6s1.8,1,2.5,1.9s1.2,2,1.5,3.3l-0.9-0.2l0.4-0.7c0.3-0.7,0.8-1.4,1.4-2
				s1.3-1.1,2-1.6c0.8-0.5,1.5-0.8,2.4-1.1s1.6-0.4,2.5-0.4c1.8,0,3.3,0.4,4.5,1.1c1.2,0.7,2.1,1.8,2.7,3.3s0.9,3.3,0.9,5.5v14.3
				h-5.6v-14c0-1.2-0.2-2.2-0.5-3s-0.8-1.4-1.4-1.7s-1.5-0.6-2.4-0.6c-0.8,0-1.5,0.1-2.1,0.4c-0.7,0.2-1.2,0.6-1.7,1.1
				s-0.9,1-1.1,1.6s-0.4,1.3-0.4,2v14.2h-5.6v-14c0-1.1-0.2-2.1-0.5-2.9c-0.3-0.8-0.8-1.4-1.4-1.8s-1.4-0.6-2.3-0.6
				c-0.8,0-1.5,0.1-2.1,0.4c-0.7,0.2-1.2,0.6-1.7,1.1s-0.8,1-1.1,1.6c-0.3,0.6-0.4,1.3-0.4,2v14.2L1370.9,560.4L1370.9,560.4z"/>
			<path class="st0" d="M1416.5,531.6c-1.1,0-2-0.3-2.6-0.8s-0.9-1.3-0.9-2.4c0-1,0.3-1.7,0.9-2.3s1.5-0.9,2.6-0.9s2,0.3,2.6,0.8
				c0.6,0.6,0.9,1.4,0.9,2.4c0,0.9-0.3,1.7-1,2.3C1418.5,531.3,1417.6,531.6,1416.5,531.6z M1413.8,560.4v-23.7h5.5v23.7H1413.8z"/>
			<path class="st0" d="M1424.2,541.8v-5.1h15.4v5.1H1424.2z M1428.9,560.4v-29.8h5.5v29.8H1428.9z"/>
			<path class="st0" d="M1455,560.8c-2.5,0-4.7-0.5-6.6-1.6c-1.9-1-3.4-2.5-4.5-4.3s-1.6-3.9-1.6-6.2c0-1.9,0.3-3.6,0.9-5.1
				s1.4-2.9,2.5-4s2.3-2,3.8-2.6s3.1-0.9,4.9-0.9c1.6,0,3,0.3,4.4,0.9c1.3,0.6,2.5,1.4,3.5,2.5c1,1,1.8,2.3,2.3,3.7s0.8,3,0.7,4.7
				v1.9h-19.2l-1-3.8h15.6l-0.7,0.8v-1c-0.1-0.9-0.4-1.8-0.9-2.5s-1.2-1.3-2-1.7s-1.7-0.6-2.6-0.6c-1.5,0-2.7,0.3-3.7,0.9
				c-1,0.6-1.8,1.4-2.3,2.5s-0.8,2.4-0.8,4c0,1.5,0.3,2.9,1,4s1.6,2,2.8,2.6c1.2,0.6,2.6,0.9,4.2,0.9c1.1,0,2.1-0.2,3.1-0.5
				c0.9-0.4,1.9-1,3-1.9l2.8,3.8c-0.8,0.8-1.7,1.4-2.8,1.9c-1,0.5-2.1,0.9-3.3,1.2C1457.2,560.7,1456.1,560.8,1455,560.8z"/>
			<path class="st0" d="M1479.8,560.8c-2.1,0-4-0.5-5.7-1.6s-3-2.5-4-4.4c-1-1.8-1.5-4-1.5-6.4s0.5-4.5,1.4-6.3s2.3-3.3,3.9-4.4
				c1.7-1.1,3.6-1.6,5.7-1.6c1.1,0,2.2,0.2,3.3,0.5c1.1,0.4,2,0.8,2.9,1.5c0.8,0.6,1.5,1.3,2,2c0.5,0.8,0.8,1.5,0.8,2.3l-1.5,0.2
				v-15.7h5.5v33.3h-5.4l-0.1-5.6l1.1,0.1c0,0.8-0.3,1.5-0.8,2.2s-1.1,1.3-1.9,1.9c-0.8,0.6-1.7,1-2.7,1.4
				C1481.9,560.7,1480.8,560.8,1479.8,560.8z M1480.8,556.1c1.3,0,2.4-0.3,3.4-1s1.8-1.6,2.3-2.7c0.5-1.1,0.8-2.5,0.8-4
				s-0.3-2.8-0.8-3.9c-0.6-1.2-1.3-2-2.3-2.7c-1-0.6-2.1-1-3.4-1s-2.4,0.3-3.4,1s-1.8,1.5-2.3,2.7s-0.8,2.5-0.8,3.9
				c0,1.5,0.3,2.8,0.8,4c0.6,1.1,1.3,2,2.3,2.7S1479.5,556.1,1480.8,556.1z"/>
		</g>
	</g>
</g>
<g>
	<g>
		<g>
			<path class="st0" d="M1047.5,602.9c-1.2,0-2.3-0.2-3.3-0.6c-1-0.4-1.9-1-2.6-1.8s-1.3-1.7-1.7-2.8c-0.4-1.1-0.6-2.2-0.6-3.5
				c0-1.2,0.2-2.4,0.6-3.4s1-1.9,1.7-2.7s1.6-1.4,2.6-1.8c1-0.4,2.1-0.6,3.3-0.6c0.8,0,1.6,0.1,2.3,0.4c0.8,0.2,1.5,0.6,2.1,1
				s1.2,0.9,1.6,1.5l-1.3,1.3c-0.4-0.5-0.9-0.9-1.4-1.2s-1.1-0.6-1.6-0.8c-0.6-0.2-1.2-0.3-1.7-0.3c-0.9,0-1.7,0.2-2.5,0.5
				s-1.4,0.8-2,1.4c-0.6,0.6-1,1.3-1.3,2.1s-0.5,1.7-0.5,2.7s0.2,1.9,0.5,2.7s0.8,1.5,1.3,2.2c0.6,0.6,1.3,1.1,2.1,1.4
				c0.8,0.3,1.7,0.5,2.7,0.5c0.6,0,1.2-0.1,1.7-0.2c0.6-0.2,1.1-0.4,1.6-0.7s0.9-0.7,1.2-1l1,1.6c-0.4,0.5-0.9,0.8-1.5,1.2
				c-0.6,0.3-1.3,0.6-2,0.8C1049,602.8,1048.3,602.9,1047.5,602.9z"/>
			<path class="st0" d="M1056.1,602.6v-12.5h1.8l0.1,3.3l-0.2-0.5c0.2-0.6,0.5-1.1,0.8-1.6s0.9-0.9,1.4-1.2s1.1-0.4,1.8-0.4
				c0.3,0,0.5,0,0.8,0.1s0.4,0.1,0.6,0.2l-0.5,2c-0.2-0.1-0.4-0.2-0.6-0.2s-0.4-0.1-0.6-0.1c-0.5,0-1,0.1-1.5,0.3
				c-0.4,0.2-0.8,0.5-1.1,0.8c-0.3,0.3-0.5,0.7-0.7,1.2s-0.2,0.9-0.2,1.4v7.1L1056.1,602.6L1056.1,602.6z"/>
			<path class="st0" d="M1069.9,602.9c-1.1,0-2.1-0.3-2.9-0.8c-0.9-0.6-1.6-1.3-2.1-2.3s-0.8-2.1-0.8-3.3c0-1.3,0.3-2.4,0.8-3.4
				s1.2-1.7,2.1-2.3s1.9-0.8,3-0.8c0.7,0,1.3,0.1,1.8,0.3c0.6,0.2,1.1,0.5,1.5,0.8s0.8,0.7,1.1,1.2s0.5,1,0.6,1.5l-0.5-0.3l0.1-3.2
				h1.8v12.5h-1.8v-3.1l0.5-0.3c-0.1,0.5-0.3,0.9-0.6,1.4c-0.3,0.4-0.7,0.8-1.2,1.2s-1,0.6-1.5,0.8
				C1071.1,602.8,1070.5,602.9,1069.9,602.9z M1070.3,601.1c0.8,0,1.6-0.2,2.2-0.6c0.7-0.4,1.2-1,1.5-1.7c0.4-0.7,0.6-1.6,0.6-2.5
				s-0.2-1.8-0.6-2.5s-0.9-1.3-1.5-1.7c-0.7-0.4-1.4-0.6-2.2-0.6c-0.8,0-1.6,0.2-2.2,0.6s-1.2,1-1.5,1.7c-0.4,0.7-0.6,1.5-0.6,2.5
				c0,0.9,0.2,1.7,0.5,2.5c0.4,0.7,0.9,1.3,1.5,1.7C1068.7,600.9,1069.5,601.1,1070.3,601.1z"/>
			<path class="st0" d="M1079.1,591.9v-1.7h7.2v1.7H1079.1z M1081.3,602.6v-14.5c0-0.6,0.1-1.2,0.4-1.7s0.7-0.9,1.2-1.1
				s1.1-0.4,1.8-0.4c0.5,0,1,0.1,1.4,0.3s0.8,0.4,1,0.8l-0.6,1.4c-0.3-0.3-0.5-0.5-0.8-0.6s-0.6-0.2-0.8-0.2c-0.3,0-0.7,0.1-0.9,0.2
				s-0.4,0.3-0.5,0.5s-0.2,0.5-0.2,0.8v14.5h-0.8c-0.2,0-0.3,0-0.5,0C1081.7,602.6,1081.5,602.6,1081.3,602.6z"/>
			<path class="st0" d="M1087.9,591.8v-1.7h7.8v1.7H1087.9z M1090.7,602.6v-15.8h1.8v15.8H1090.7z"/>
			<path class="st0" d="M1099.2,587.4c-0.5,0-0.8-0.1-1-0.3s-0.4-0.5-0.4-1s0.1-0.7,0.4-1c0.2-0.2,0.6-0.4,1-0.4s0.8,0.1,1,0.3
				s0.4,0.6,0.4,1s-0.1,0.7-0.4,0.9C1100,587.3,1099.7,587.4,1099.2,587.4z M1098.4,602.6v-12.5h1.8v12.5H1098.4z"/>
			<path class="st0" d="M1104.1,602.6v-12.5h1.8l0.1,2.6l-0.3,0.1c0.2-0.5,0.5-1,0.9-1.5c0.5-0.5,1-0.8,1.7-1.1
				c0.6-0.3,1.3-0.4,2-0.4c0.9,0,1.7,0.2,2.3,0.5c0.6,0.4,1.1,0.9,1.4,1.7s0.5,1.7,0.5,2.9v7.6h-1.8V595c0-0.8-0.1-1.5-0.3-2
				c-0.2-0.5-0.5-0.9-1-1.2c-0.4-0.3-1-0.4-1.7-0.4c-0.5,0-1.1,0.1-1.5,0.3c-0.5,0.2-0.9,0.4-1.2,0.8c-0.3,0.3-0.6,0.7-0.8,1.1
				c-0.2,0.4-0.3,0.9-0.3,1.3v7.6h-0.9c-0.1,0-0.2,0-0.4,0C1104.5,602.6,1104.3,602.6,1104.1,602.6z"/>
			<path class="st0" d="M1123.3,608.1c-0.9,0-1.8-0.1-2.6-0.4s-1.5-0.7-2.1-1.1l0.7-1.5c0.3,0.3,0.7,0.5,1.1,0.7s0.9,0.4,1.4,0.5
				s1,0.2,1.5,0.2c0.9,0,1.7-0.2,2.4-0.5c0.6-0.3,1.1-0.8,1.5-1.5c0.3-0.7,0.5-1.5,0.5-2.5v-2.5l0.3-0.1c-0.1,0.6-0.5,1.2-0.9,1.7
				s-1.1,0.9-1.8,1.2c-0.7,0.3-1.4,0.5-2.2,0.5c-1.2,0-2.2-0.3-3.1-0.8s-1.6-1.3-2.2-2.3c-0.5-1-0.8-2.1-0.8-3.3
				c0-1.3,0.3-2.4,0.8-3.4s1.3-1.8,2.2-2.3s1.9-0.8,3.1-0.8c0.5,0,1,0.1,1.4,0.2s0.9,0.3,1.3,0.5s0.8,0.5,1.1,0.8
				c0.3,0.3,0.6,0.6,0.8,0.9c0.2,0.3,0.4,0.7,0.5,1l-0.5-0.1l0.1-3.1h1.8v11.8c0,1-0.1,1.9-0.4,2.7s-0.7,1.4-1.3,2
				c-0.5,0.5-1.2,0.9-2,1.2C1125.1,608,1124.2,608.1,1123.3,608.1z M1123.3,601.1c0.9,0,1.6-0.2,2.3-0.6c0.7-0.4,1.2-1,1.6-1.7
				s0.6-1.5,0.6-2.5c0-0.9-0.2-1.8-0.6-2.5s-0.9-1.3-1.6-1.7s-1.4-0.6-2.3-0.6s-1.6,0.2-2.3,0.6s-1.2,1-1.6,1.7s-0.6,1.5-0.6,2.5
				c0,0.9,0.2,1.7,0.6,2.5c0.4,0.7,0.9,1.3,1.6,1.7C1121.7,600.9,1122.5,601.1,1123.3,601.1z"/>
			<path class="st0" d="M1147.4,602.9c-1.2,0-2.3-0.2-3.3-0.6c-1-0.4-1.9-1-2.6-1.8s-1.3-1.7-1.7-2.8c-0.4-1.1-0.6-2.2-0.6-3.5
				c0-1.2,0.2-2.4,0.6-3.4s1-1.9,1.7-2.7s1.6-1.4,2.6-1.8c1-0.4,2.1-0.6,3.3-0.6c0.8,0,1.6,0.1,2.3,0.4s1.5,0.6,2.1,1
				c0.7,0.4,1.2,0.9,1.6,1.5l-1.3,1.3c-0.4-0.5-0.9-0.9-1.4-1.2s-1.1-0.6-1.6-0.8c-0.6-0.2-1.1-0.3-1.7-0.3c-0.9,0-1.7,0.2-2.5,0.5
				s-1.4,0.8-2,1.4c-0.6,0.6-1,1.3-1.3,2.1s-0.5,1.7-0.5,2.7s0.2,1.9,0.5,2.7s0.8,1.5,1.3,2.2c0.6,0.6,1.3,1.1,2.1,1.4
				s1.7,0.5,2.7,0.5c0.6,0,1.2-0.1,1.7-0.2s1.1-0.4,1.6-0.7s0.9-0.7,1.2-1l1,1.6c-0.4,0.5-0.9,0.8-1.5,1.2c-0.6,0.3-1.3,0.6-2,0.8
				C1148.9,602.8,1148.1,602.9,1147.4,602.9z"/>
			<path class="st0" d="M1161.5,602.9c-1.2,0-2.4-0.3-3.3-0.8c-1-0.6-1.7-1.3-2.3-2.3s-0.8-2.1-0.8-3.4c0-1.2,0.3-2.4,0.8-3.3
				c0.6-1,1.3-1.7,2.3-2.3s2.1-0.8,3.3-0.8c1.2,0,2.3,0.3,3.3,0.8s1.7,1.3,2.3,2.3c0.5,1,0.8,2.1,0.8,3.3c0,1.3-0.3,2.4-0.8,3.4
				s-1.3,1.8-2.3,2.3C1163.8,602.6,1162.7,602.9,1161.5,602.9z M1161.5,601.2c0.9,0,1.7-0.2,2.3-0.6c0.7-0.4,1.2-1,1.6-1.7
				s0.6-1.6,0.6-2.5s-0.2-1.8-0.6-2.5s-0.9-1.3-1.6-1.7s-1.5-0.6-2.3-0.6c-0.9,0-1.7,0.2-2.4,0.6c-0.7,0.4-1.2,1-1.6,1.7
				s-0.6,1.5-0.6,2.5c0,0.9,0.2,1.8,0.6,2.5s0.9,1.3,1.6,1.7C1159.8,601,1160.6,601.2,1161.5,601.2z"/>
			<path class="st0" d="M1175.6,602.9c-1.1,0-2.2-0.3-3.1-0.8s-1.6-1.3-2.1-2.3s-0.8-2.1-0.8-3.3c0-1.3,0.3-2.4,0.8-3.4
				s1.2-1.8,2.1-2.3c0.9-0.6,1.9-0.8,3-0.8c0.6,0,1.2,0.1,1.8,0.3s1.1,0.5,1.6,0.8s0.8,0.7,1.1,1.2s0.5,0.9,0.6,1.4l-0.6-0.2v-8.4
				h1.8v17.8h-1.8l-0.1-3.1l0.5-0.2c-0.1,0.5-0.2,0.9-0.5,1.3c-0.3,0.4-0.7,0.8-1.1,1.1s-1,0.6-1.5,0.8
				C1176.8,602.8,1176.2,602.9,1175.6,602.9z M1175.9,601.2c0.8,0,1.6-0.2,2.2-0.6c0.7-0.4,1.2-1,1.6-1.7s0.6-1.6,0.6-2.5
				s-0.2-1.8-0.6-2.5s-0.9-1.3-1.6-1.7s-1.4-0.6-2.2-0.6c-0.9,0-1.6,0.2-2.3,0.6c-0.6,0.4-1.2,1-1.5,1.7s-0.6,1.6-0.6,2.5
				s0.2,1.8,0.5,2.5s0.9,1.3,1.5,1.7C1174.3,601,1175,601.2,1175.9,601.2z"/>
			<path class="st0" d="M1191,602.9c-1.2,0-2.4-0.3-3.3-0.8c-1-0.5-1.7-1.3-2.3-2.3c-0.5-1-0.8-2.1-0.8-3.4c0-1,0.2-1.9,0.5-2.7
				s0.7-1.5,1.3-2.1c0.5-0.6,1.2-1,2-1.4s1.6-0.5,2.5-0.5c0.8,0,1.6,0.2,2.3,0.5c0.7,0.3,1.3,0.7,1.8,1.3c0.5,0.5,0.9,1.2,1.1,1.9
				s0.4,1.5,0.3,2.4v0.8h-10.5l-0.3-1.5h9.3l-0.4,0.4v-0.6c0-0.6-0.2-1.1-0.5-1.7c-0.3-0.5-0.7-1-1.3-1.3s-1.2-0.5-2-0.5
				c-0.9,0-1.7,0.2-2.3,0.5c-0.7,0.4-1.2,0.9-1.5,1.6c-0.3,0.7-0.5,1.6-0.5,2.6s0.2,1.8,0.6,2.6c0.4,0.7,0.9,1.3,1.6,1.7
				s1.6,0.6,2.6,0.6c0.6,0,1.2-0.1,1.8-0.3s1.2-0.6,1.9-1.2l0.9,1.3c-0.4,0.4-0.8,0.7-1.3,1s-1.1,0.5-1.7,0.7
				C1192.2,602.8,1191.6,602.9,1191,602.9z"/>
			<path class="st0" d="M1199.2,606.6l-0.7-0.9c0.5-0.3,0.9-0.6,1.2-1s0.4-0.7,0.4-1c0-0.2,0-0.3-0.1-0.5s-0.2-0.4-0.5-0.6
				c-0.2-0.2-0.4-0.4-0.5-0.6c-0.1-0.2-0.2-0.4-0.2-0.6c0-0.3,0.1-0.6,0.3-0.8c0.2-0.2,0.5-0.3,0.9-0.3s0.7,0.1,1,0.3
				s0.5,0.5,0.6,0.8c0.2,0.3,0.2,0.8,0.2,1.2s-0.1,0.8-0.2,1.2s-0.3,0.7-0.5,1.1s-0.5,0.6-0.9,0.9S1199.6,606.4,1199.2,606.6z"/>
			<path class="st0" d="M1211.5,602.6v-1.8h2.7v-13.2h-2.7v-1.8h7.3v1.8h-2.7v13.2h2.7v1.8H1211.5z"/>
			<path class="st0" d="M1222.3,602.6v-12.5h1.8l0.1,2.6l-0.3,0.1c0.2-0.5,0.5-1,0.9-1.5c0.5-0.5,1-0.8,1.7-1.1s1.3-0.4,2-0.4
				c0.9,0,1.7,0.2,2.3,0.5c0.6,0.4,1.1,0.9,1.4,1.7s0.5,1.7,0.5,2.9v7.6h-1.8V595c0-0.8-0.1-1.5-0.3-2c-0.2-0.5-0.6-0.9-1-1.2
				c-0.5-0.3-1-0.4-1.7-0.4c-0.5,0-1,0.1-1.5,0.3s-0.9,0.4-1.2,0.8c-0.3,0.3-0.6,0.7-0.8,1.1c-0.2,0.4-0.3,0.9-0.3,1.3v7.6h-0.9
				c-0.1,0-0.2,0-0.4,0C1222.7,602.6,1222.5,602.6,1222.3,602.6z"/>
			<path class="st0" d="M1240.2,602.9c-1.1,0-2-0.2-2.9-0.6c-0.8-0.4-1.5-0.9-2-1.6l1.3-1.1c0.5,0.6,1,1,1.6,1.3s1.3,0.4,2.1,0.4
				c0.4,0,0.8,0,1.1-0.1c0.3-0.1,0.6-0.2,0.8-0.4c0.2-0.2,0.4-0.4,0.6-0.6c0.1-0.2,0.2-0.5,0.2-0.8c0-0.5-0.2-1-0.7-1.3
				c-0.2-0.1-0.5-0.3-0.9-0.4c-0.4-0.2-0.8-0.3-1.4-0.4c-0.9-0.3-1.6-0.5-2.2-0.8s-1.1-0.6-1.4-0.9c-0.2-0.3-0.4-0.6-0.5-0.9
				s-0.2-0.7-0.2-1.1c0-0.5,0.1-1,0.3-1.4c0.2-0.4,0.5-0.8,0.9-1.1s0.9-0.6,1.4-0.7c0.5-0.2,1.1-0.2,1.7-0.2s1.2,0.1,1.8,0.2
				c0.6,0.2,1.1,0.4,1.6,0.7s0.9,0.7,1.3,1.1l-1.1,1.2c-0.3-0.3-0.6-0.6-1-0.9c-0.4-0.2-0.8-0.5-1.2-0.6c-0.4-0.1-0.8-0.2-1.3-0.2
				c-0.4,0-0.7,0-1.1,0.1c-0.3,0.1-0.6,0.2-0.8,0.4s-0.4,0.4-0.5,0.6c-0.1,0.2-0.2,0.5-0.2,0.8c0,0.2,0,0.5,0.1,0.7s0.2,0.4,0.4,0.5
				c0.2,0.2,0.5,0.3,1,0.5c0.4,0.2,0.9,0.3,1.5,0.5c0.7,0.2,1.3,0.4,1.8,0.6s0.9,0.4,1.2,0.7c0.4,0.3,0.7,0.7,0.9,1.1
				c0.2,0.4,0.3,0.9,0.3,1.4c0,0.7-0.2,1.3-0.6,1.9c-0.4,0.5-0.9,1-1.6,1.3C1241.9,602.7,1241.1,602.9,1240.2,602.9z"/>
			<path class="st0" d="M1247.6,607.9v-17.8h1.8l0.1,3h-0.3c0.1-0.6,0.5-1.2,0.9-1.7c0.5-0.5,1.1-0.9,1.8-1.2
				c0.7-0.3,1.4-0.5,2.2-0.5c1.1,0,2.1,0.3,3,0.8s1.6,1.3,2.1,2.3s0.8,2.1,0.8,3.4c0,1.2-0.3,2.4-0.8,3.3c-0.5,1-1.2,1.8-2.1,2.3
				c-0.9,0.6-1.9,0.8-3,0.8c-0.8,0-1.5-0.2-2.2-0.5s-1.3-0.7-1.8-1.3s-0.8-1.1-1-1.7h0.4v8.5L1247.6,607.9L1247.6,607.9z
				 M1253.7,601.1c0.8,0,1.6-0.2,2.3-0.6c0.7-0.4,1.2-1,1.6-1.7s0.6-1.5,0.6-2.5c0-0.9-0.2-1.8-0.6-2.5s-0.9-1.3-1.6-1.7
				s-1.4-0.6-2.3-0.6c-0.8,0-1.6,0.2-2.3,0.6c-0.7,0.4-1.2,1-1.6,1.7s-0.6,1.5-0.6,2.5s0.2,1.8,0.6,2.5s0.9,1.3,1.6,1.7
				S1252.9,601.1,1253.7,601.1z"/>
			<path class="st0" d="M1263.9,587.4c-0.4,0-0.8-0.1-1-0.3s-0.3-0.5-0.3-1s0.1-0.7,0.4-1c0.2-0.2,0.6-0.4,1-0.4s0.8,0.1,1,0.3
				s0.4,0.6,0.4,1s-0.1,0.7-0.4,0.9C1264.7,587.3,1264.3,587.4,1263.9,587.4z M1263,602.6v-12.5h1.8v12.5H1263z"/>
			<path class="st0" d="M1268.7,602.6v-12.5h1.8v3.3l-0.2-0.5c0.2-0.6,0.5-1.1,0.8-1.6s0.9-0.9,1.4-1.2s1.1-0.4,1.8-0.4
				c0.3,0,0.5,0,0.8,0.1s0.4,0.1,0.6,0.2l-0.5,2c-0.2-0.1-0.4-0.2-0.6-0.2s-0.4-0.1-0.6-0.1c-0.5,0-1,0.1-1.5,0.3s-0.8,0.5-1.1,0.8
				c-0.3,0.3-0.5,0.7-0.7,1.2s-0.2,0.9-0.2,1.4v7.1L1268.7,602.6L1268.7,602.6z"/>
			<path class="st0" d="M1279.1,587.4c-0.5,0-0.8-0.1-1-0.3s-0.3-0.5-0.3-1s0.1-0.7,0.4-1s0.6-0.4,1-0.4s0.8,0.1,1,0.3
				s0.4,0.6,0.4,1s-0.1,0.7-0.4,0.9C1279.8,587.3,1279.5,587.4,1279.1,587.4z M1278.2,602.6v-12.5h1.8v12.5H1278.2z"/>
			<path class="st0" d="M1283.9,602.6v-12.5h1.8l0.1,2.6l-0.3,0.1c0.2-0.5,0.5-1,0.9-1.5c0.5-0.5,1-0.8,1.7-1.1s1.3-0.4,2-0.4
				c0.9,0,1.7,0.2,2.3,0.5c0.6,0.4,1.1,0.9,1.4,1.7s0.5,1.7,0.5,2.9v7.6h-1.8V595c0-0.8-0.1-1.5-0.3-2c-0.2-0.5-0.6-0.9-1-1.2
				s-1-0.4-1.7-0.4c-0.5,0-1.1,0.1-1.5,0.3c-0.5,0.2-0.9,0.4-1.2,0.8s-0.6,0.7-0.8,1.1c-0.2,0.4-0.3,0.9-0.3,1.3v7.6h-0.9
				c-0.1,0-0.2,0-0.4,0S1284.1,602.6,1283.9,602.6z"/>
			<path class="st0" d="M1303.1,608.1c-0.9,0-1.8-0.1-2.6-0.4c-0.8-0.3-1.5-0.7-2.1-1.1l0.7-1.5c0.3,0.3,0.7,0.5,1.1,0.7
				s0.9,0.4,1.4,0.5s1,0.2,1.5,0.2c0.9,0,1.7-0.2,2.4-0.5c0.7-0.3,1.1-0.8,1.5-1.5c0.3-0.7,0.5-1.5,0.5-2.5v-2.5l0.3-0.1
				c-0.1,0.6-0.5,1.2-0.9,1.7s-1.1,0.9-1.8,1.2s-1.4,0.5-2.2,0.5c-1.2,0-2.2-0.3-3.1-0.8c-0.9-0.6-1.6-1.3-2.2-2.3
				c-0.5-1-0.8-2.1-0.8-3.3c0-1.3,0.3-2.4,0.8-3.4s1.3-1.8,2.2-2.3c0.9-0.6,1.9-0.8,3.1-0.8c0.5,0,1,0.1,1.4,0.2
				c0.5,0.1,0.9,0.3,1.3,0.5s0.8,0.5,1.1,0.8c0.3,0.3,0.6,0.6,0.8,0.9c0.2,0.3,0.4,0.7,0.5,1l-0.5-0.1l0.1-3.1h1.8v11.8
				c0,1-0.1,1.9-0.4,2.7s-0.7,1.4-1.3,2c-0.6,0.5-1.2,0.9-2,1.2C1304.9,608,1304.1,608.1,1303.1,608.1z M1303.1,601.1
				c0.9,0,1.6-0.2,2.3-0.6c0.7-0.4,1.2-1,1.6-1.7s0.6-1.5,0.6-2.5c0-0.9-0.2-1.8-0.6-2.5s-0.9-1.3-1.6-1.7s-1.4-0.6-2.3-0.6
				s-1.6,0.2-2.3,0.6s-1.2,1-1.6,1.7s-0.6,1.5-0.6,2.5c0,0.9,0.2,1.7,0.6,2.5c0.4,0.7,0.9,1.3,1.6,1.7
				C1301.5,600.9,1302.3,601.1,1303.1,601.1z"/>
			<path class="st0" d="M1319.5,602.6v-1.8h2.7v-13.2h-2.7v-1.8h7.3v1.8h-2.7v13.2h2.7v1.8H1319.5z"/>
			<path class="st0" d="M1330.2,602.6v-12.5h1.8l0.1,2.6l-0.3,0.1c0.2-0.5,0.5-1,0.9-1.5c0.5-0.5,1-0.8,1.7-1.1s1.3-0.4,2-0.4
				c0.9,0,1.7,0.2,2.3,0.5c0.6,0.4,1.1,0.9,1.4,1.7s0.5,1.7,0.5,2.9v7.6h-1.8V595c0-0.8-0.1-1.5-0.3-2c-0.2-0.5-0.6-0.9-1-1.2
				s-1-0.4-1.7-0.4c-0.5,0-1.1,0.1-1.5,0.3c-0.5,0.2-0.9,0.4-1.2,0.8s-0.6,0.7-0.8,1.1c-0.2,0.4-0.3,0.9-0.3,1.3v7.6h-0.9
				c-0.1,0-0.2,0-0.4,0C1330.6,602.6,1330.4,602.6,1330.2,602.6z"/>
			<path class="st0" d="M1344,602.6v-12.5h1.8l0.1,2.6l-0.3,0.1c0.2-0.5,0.5-1,0.9-1.5c0.5-0.5,1-0.8,1.7-1.1s1.3-0.4,2-0.4
				c0.9,0,1.7,0.2,2.3,0.5s1.1,0.9,1.4,1.7s0.5,1.7,0.5,2.9v7.6h-1.8V595c0-0.8-0.1-1.5-0.3-2c-0.2-0.5-0.6-0.9-1-1.2
				c-0.5-0.3-1-0.4-1.7-0.4c-0.5,0-1,0.1-1.5,0.3s-0.9,0.4-1.2,0.8c-0.3,0.3-0.6,0.7-0.8,1.1c-0.2,0.4-0.3,0.9-0.3,1.3v7.6h-0.9
				c-0.1,0-0.2,0-0.4,0C1344.4,602.6,1344.2,602.6,1344,602.6z"/>
			<path class="st0" d="M1363.4,602.9c-1.2,0-2.4-0.3-3.3-0.8c-1-0.6-1.7-1.3-2.3-2.3c-0.5-1-0.8-2.1-0.8-3.4c0-1.2,0.3-2.4,0.8-3.3
				c0.5-1,1.3-1.7,2.3-2.3s2.1-0.8,3.3-0.8c1.2,0,2.3,0.3,3.3,0.8s1.7,1.3,2.3,2.3c0.6,1,0.8,2.1,0.8,3.3c0,1.3-0.3,2.4-0.8,3.4
				s-1.3,1.8-2.3,2.3C1365.7,602.6,1364.6,602.9,1363.4,602.9z M1363.4,601.2c0.9,0,1.7-0.2,2.4-0.6c0.7-0.4,1.2-1,1.6-1.7
				s0.6-1.6,0.6-2.5s-0.2-1.8-0.6-2.5s-0.9-1.3-1.6-1.7s-1.5-0.6-2.4-0.6s-1.7,0.2-2.4,0.6c-0.7,0.4-1.2,1-1.6,1.7s-0.6,1.5-0.6,2.5
				c0,0.9,0.2,1.8,0.6,2.5s0.9,1.3,1.6,1.7C1361.7,601,1362.5,601.2,1363.4,601.2z"/>
			<path class="st0" d="M1376.3,602.6l-5.3-12.5h2l4.2,10.2l-0.5,0.3l4.6-10.5h1.9l-5.6,12.5H1376.3z"/>
			<path class="st0" d="M1390.2,602.9c-1.1,0-2.1-0.3-3-0.8c-0.9-0.6-1.6-1.3-2.1-2.3s-0.8-2.1-0.8-3.3c0-1.3,0.3-2.4,0.8-3.4
				s1.2-1.7,2.1-2.3s1.9-0.8,3-0.8c0.7,0,1.3,0.1,1.8,0.3c0.6,0.2,1.1,0.5,1.5,0.8s0.8,0.7,1.1,1.2c0.3,0.5,0.5,1,0.6,1.5l-0.5-0.3
				l0.1-3.2h1.8v12.5h-1.8v-3.1l0.5-0.3c-0.1,0.5-0.3,0.9-0.7,1.4s-0.7,0.8-1.2,1.2s-1,0.6-1.5,0.8
				C1391.4,602.8,1390.8,602.9,1390.2,602.9z M1390.6,601.1c0.8,0,1.6-0.2,2.2-0.6c0.7-0.4,1.2-1,1.6-1.7s0.6-1.6,0.6-2.5
				s-0.2-1.8-0.6-2.5s-0.9-1.3-1.6-1.7s-1.4-0.6-2.2-0.6c-0.8,0-1.6,0.2-2.2,0.6c-0.6,0.4-1.2,1-1.5,1.7c-0.4,0.7-0.6,1.5-0.6,2.5
				c0,0.9,0.2,1.7,0.5,2.5c0.4,0.7,0.9,1.3,1.5,1.7C1389,600.9,1389.8,601.1,1390.6,601.1z"/>
			<path class="st0" d="M1399.1,591.8v-1.7h7.8v1.7H1399.1z M1401.9,602.6v-15.8h1.8v15.8H1401.9z"/>
			<path class="st0" d="M1410.5,587.4c-0.5,0-0.8-0.1-1-0.3s-0.4-0.5-0.4-1s0.1-0.7,0.4-1s0.6-0.4,1-0.4s0.8,0.1,1,0.3
				s0.4,0.6,0.4,1s-0.1,0.7-0.4,0.9C1411.2,587.3,1410.9,587.4,1410.5,587.4z M1409.6,602.6v-12.5h1.8v12.5H1409.6z"/>
			<path class="st0" d="M1420.9,602.9c-1.2,0-2.4-0.3-3.3-0.8c-1-0.6-1.7-1.3-2.3-2.3c-0.5-1-0.8-2.1-0.8-3.4c0-1.2,0.3-2.4,0.8-3.3
				c0.5-1,1.3-1.7,2.3-2.3s2.1-0.8,3.3-0.8c1.2,0,2.3,0.3,3.3,0.8s1.7,1.3,2.3,2.3c0.6,1,0.8,2.1,0.8,3.3c0,1.3-0.3,2.4-0.8,3.4
				s-1.3,1.8-2.3,2.3C1423.2,602.6,1422.1,602.9,1420.9,602.9z M1420.9,601.2c0.9,0,1.7-0.2,2.4-0.6c0.7-0.4,1.2-1,1.6-1.7
				s0.6-1.6,0.6-2.5s-0.2-1.8-0.6-2.5s-0.9-1.3-1.6-1.7s-1.5-0.6-2.4-0.6s-1.7,0.2-2.4,0.6c-0.7,0.4-1.2,1-1.6,1.7s-0.6,1.5-0.6,2.5
				c0,0.9,0.2,1.8,0.6,2.5s0.9,1.3,1.6,1.7C1419.2,601,1420,601.2,1420.9,601.2z"/>
			<path class="st0" d="M1429.9,602.6v-12.5h1.8l0.1,2.6l-0.3,0.1c0.2-0.5,0.5-1,0.9-1.5c0.5-0.5,1-0.8,1.7-1.1
				c0.6-0.3,1.3-0.4,2-0.4c0.9,0,1.7,0.2,2.3,0.5c0.6,0.4,1.1,0.9,1.4,1.7s0.5,1.7,0.5,2.9v7.6h-1.8V595c0-0.8-0.1-1.5-0.3-2
				c-0.2-0.5-0.5-0.9-1-1.2c-0.4-0.3-1-0.4-1.7-0.4c-0.5,0-1.1,0.1-1.5,0.3c-0.5,0.2-0.9,0.4-1.2,0.8c-0.3,0.3-0.6,0.7-0.8,1.1
				s-0.3,0.9-0.3,1.3v7.6h-0.9c-0.1,0-0.2,0-0.4,0C1430.3,602.6,1430.1,602.6,1429.9,602.6z"/>
		</g>
	</g>
</g>
<g>
	<path class="st2" d="M347.4,306V43.7l-62.2-32.3V267l-20.6-10.8c-14-7.4-29.7-11.1-45.6-10c-6.5,0.5-13.4,1.8-20.3,4.3
		c-15.4,5.9-107.2,59.9-140.3,79.5c-13.4,7.9-24.8,19.1-32,32.8c-2.6,4.8-4.8,10.2-6.3,16c-0.9,3.9-1.2,7.7-1.2,11.7
		c0,24.8,0,136.5,0,175.7c0,17.9,6.5,35.4,18.9,48.2c5.1,5.1,11.2,9.9,19.1,13.2l36.3,19.1l-15.6-22.5V430.7
		c0-16.2,5.4-32.2,16-44.4c4.8-5.4,10.8-10.5,18.5-14.8l135.5-77c19.1-10.9,41.7-14.8,63.1-9.7C323.5,287.8,336.8,294,347.4,306z"/>
	<path class="st1" d="M458.8,574.9c-0.3-4-0.6-8.2-0.6-12.2V139.8c0-27.7-10.3-38-10.3-38C440.9,91.4,401.2,69,401.2,69l-5.2,261.2
		c-31.1-34.7-83-13.9-83-13.9l-138.3,75l-12.5,6.3c-37,15.7-36,63.1-36,63.1s-3.4,152.9,0,180.7s34.7,45,34.7,45l42.8,24.3
		c13.1,7.4,27.7,12.2,42.8,12.8c22.3,1.1,35.4-6,35.4-6l138.5-77.2c10-5.5,19.1-13.1,25.9-22.5C459.2,599.5,459.5,582.6,458.8,574.9
		z M194.9,462.8c7.1-12.5,19.6-20.9,32.3-27.6c12.6-6.6,24.9-12.9,37-20.3c2.2-1.4,21.1-9.7,21.1-12c0,12.2,0,24.3,0,36.3
		c0,18.3,3.4,40.2-1.8,57.9c-3.1,10.5-10.3,19.3-18.8,26.2c-22.3,18.3-51.3,31-76.2,45.4c3.7-2.2-0.2-41.1,0-45.7
		C188.9,503,184.5,481.4,194.9,462.8z M399.3,544.8c0,12-3.2,24-10,34c-6.2,9.2-10.8,10.8-10.8,10.8l-172.9,96.7
		c-7.5,3.9-12,0.9-14.6-2.5c-1.8-2.6-2.8-5.7-2.8-8.9v-33.1c0,0,110.7-66.2,134.9-80.1c11.1-6.3,17.9-17.7,21.9-28.3
		c4-10.5,5.9-21.6,5.9-32.8V364.5c0,0,6.9-6.9,27.7-13.9c20.8-6.9,20.8,12.8,20.8,12.8V544.8L399.3,544.8z"/>
</g>
</svg>
